<?xml version="1.0" standalone="no"?>
<!DOCTYPE svg PUBLIC "-//W3C//DTD SVG 20010904//EN"
 "http://www.w3.org/TR/2001/REC-SVG-20010904/DTD/svg10.dtd">
<svg version="1.0" xmlns="http://www.w3.org/2000/svg"
 width="1254.000000pt" height="1254.000000pt" viewBox="0 0 1254.000000 1254.000000"
 preserveAspectRatio="xMidYMid meet">

<g transform="translate(0.000000,1254.000000) scale(0.100000,-0.100000)"
fill="#000000" stroke="none">
<path d="M3390 8606 c0 -9 25 -20 75 -31 96 -21 204 -75 246 -122 39 -45 66
-104 79 -175 15 -74 14 -3066 0 -3168 -34 -245 -114 -381 -268 -457 -76 -38
-76 -38 -201 -38 -122 0 -128 1 -198 34 -180 84 -288 282 -282 518 1 46 -1 83
-5 83 -3 0 -123 0 -266 0 l-260 0 0 -49 c0 -115 49 -283 115 -390 180 -298
573 -434 1026 -356 219 38 411 137 560 292 109 111 174 221 227 383 58 174 55
87 62 1690 5 1297 8 1481 21 1527 21 68 54 117 104 150 34 23 53 28 121 31 66
3 88 0 120 -16 85 -44 122 -117 135 -266 11 -141 11 -2913 -1 -3061 -5 -66
-16 -147 -25 -180 -49 -186 -166 -317 -317 -355 -28 -7 -48 -18 -48 -26 0 -12
84 -14 515 -14 423 0 515 2 515 13 0 8 -26 21 -62 31 -185 52 -292 165 -351
374 l-22 77 -5 1368 c-3 752 -3 1367 0 1367 7 0 387 -604 796 -1265 348 -563
406 -655 412 -655 4 0 41 58 83 128 158 264 1128 1851 1151 1883 17 23 17 -48
15 -1401 -4 -1491 -4 -1500 -48 -1627 -43 -126 -145 -226 -259 -253 -30 -7
-50 -17 -50 -26 0 -12 96 -14 625 -14 513 0 625 2 625 13 0 8 -21 18 -51 25
-135 32 -257 121 -309 225 -69 141 -65 27 -65 1899 0 1610 1 1688 18 1705 16
16 39 18 230 17 238 -2 338 -17 482 -73 110 -42 190 -97 278 -191 129 -137
194 -301 204 -516 12 -260 -57 -475 -204 -634 -135 -145 -332 -228 -553 -231
-47 0 -109 -4 -138 -7 l-53 -7 57 -90 c32 -49 157 -247 279 -440 122 -192 336
-530 475 -750 358 -566 539 -846 564 -874 11 -13 44 -34 71 -47 50 -24 51 -24
438 -24 431 0 454 4 298 53 -111 35 -244 120 -324 207 -142 153 -337 445
-1017 1520 -68 107 -147 232 -177 278 -34 53 -48 84 -40 86 6 2 50 13 97 25
312 80 536 252 655 506 68 144 80 202 80 405 0 137 -4 189 -18 239 -42 152
-98 257 -195 362 -160 174 -409 281 -737 319 -51 5 -329 10 -640 10 l-551 0
-375 -617 c-207 -340 -476 -785 -600 -990 -123 -205 -228 -371 -233 -370 -5 2
-59 86 -121 188 -113 185 -180 295 -620 1014 -132 215 -291 476 -355 580
l-116 190 -847 3 c-722 2 -847 0 -847 -12z"/>
</g>
</svg>
