<svg width="1200" height="920" viewBox="0 0 1200 920" fill="none" xmlns="http://www.w3.org/2000/svg">
  <rect width="1200" height="920" fill="#ECE6DE"/>
  <rect x="94" y="82" width="1012" height="756" rx="36" fill="#F7F3ED"/>
  <rect x="154" y="142" width="486" height="426" rx="24" fill="#10181B"/>
  <ellipse cx="396" cy="356" rx="154" ry="118" fill="#B7B1AA"/>
  <path d="M298 342C298 287.876 341.876 244 396 244C450.124 244 494 287.876 494 342C494 396.124 450.124 440 396 440C341.876 440 298 396.124 298 342Z" fill="#E9E4DD"/>
  <path d="M330 340C330 302.444 360.444 272 398 272C435.556 272 466 302.444 466 340C466 377.556 435.556 408 398 408C360.444 408 330 377.556 330 340Z" stroke="#020E12" stroke-width="3" stroke-dasharray="8 8"/>
  <rect x="686" y="142" width="360" height="182" rx="22" fill="#D7D0C6"/>
  <path d="M728 270L786 226L842 244L898 188L958 208L1004 170" stroke="#020E12" stroke-width="6" stroke-linecap="round"/>
  <circle cx="786" cy="226" r="10" fill="#020E12"/>
  <circle cx="898" cy="188" r="10" fill="#020E12"/>
  <circle cx="1004" cy="170" r="10" fill="#020E12"/>
  <rect x="686" y="356" width="360" height="212" rx="22" fill="#020E12"/>
  <rect x="730" y="406" width="128" height="18" rx="9" fill="#F0ECE6" fill-opacity="0.84"/>
  <rect x="730" y="446" width="202" height="18" rx="9" fill="#F0ECE6" fill-opacity="0.52"/>
  <rect x="730" y="486" width="168" height="18" rx="9" fill="#F0ECE6" fill-opacity="0.52"/>
  <rect x="154" y="618" width="892" height="154" rx="24" fill="#E3DDD4"/>
  <rect x="210" y="670" width="246" height="16" rx="8" fill="#93897C"/>
  <rect x="210" y="712" width="478" height="16" rx="8" fill="#BFB6AB"/>
  <rect x="734" y="662" width="252" height="54" rx="27" fill="#F7F3ED" stroke="#020E12" stroke-opacity="0.12"/>
</svg>
